<svg width="92" height="14" viewBox="0 0 92 14" fill="none" xmlns="http://www.w3.org/2000/svg">
<path d="M5.07163 13.112C4.25029 13.112 3.51429 12.9787 2.86363 12.712C2.21296 12.4453 1.69029 12.0507 1.29563 11.528C0.911625 11.0053 0.708958 10.376 0.687625 9.64H3.59963C3.64229 10.056 3.78629 10.376 4.03163 10.6C4.27696 10.8133 4.59696 10.92 4.99163 10.92C5.39696 10.92 5.71696 10.8293 5.95163 10.648C6.18629 10.456 6.30363 10.1947 6.30363 9.864C6.30363 9.58667 6.20763 9.35733 6.01563 9.176C5.83429 8.99467 5.60496 8.84533 5.32763 8.728C5.06096 8.61067 4.67696 8.47733 4.17563 8.328C3.45029 8.104 2.85829 7.88 2.39963 7.656C1.94096 7.432 1.54629 7.10133 1.21563 6.664C0.884958 6.22667 0.719625 5.656 0.719625 4.952C0.719625 3.90667 1.09829 3.09067 1.85563 2.504C2.61296 1.90667 3.59963 1.608 4.81563 1.608C6.05296 1.608 7.05029 1.90667 7.80763 2.504C8.56496 3.09067 8.97029 3.912 9.02363 4.968H6.06363C6.04229 4.60533 5.90896 4.32267 5.66363 4.12C5.41829 3.90667 5.10363 3.8 4.71962 3.8C4.38896 3.8 4.12229 3.89067 3.91963 4.072C3.71696 4.24267 3.61563 4.49333 3.61563 4.824C3.61563 5.18667 3.78629 5.46933 4.12762 5.672C4.46896 5.87467 5.00229 6.09333 5.72763 6.328C6.45296 6.57333 7.03963 6.808 7.48763 7.032C7.94629 7.256 8.34096 7.58133 8.67163 8.008C9.00229 8.43467 9.16763 8.984 9.16763 9.656C9.16763 10.296 9.00229 10.8773 8.67163 11.4C8.35163 11.9227 7.88229 12.3387 7.26363 12.648C6.64496 12.9573 5.91429 13.112 5.07163 13.112ZM10.3074 8.52C10.3074 7.60267 10.478 6.79733 10.8194 6.104C11.1714 5.41067 11.646 4.87733 12.2434 4.504C12.8407 4.13067 13.5074 3.944 14.2434 3.944C14.8727 3.944 15.422 4.072 15.8914 4.328C16.3714 4.584 16.7394 4.92 16.9954 5.336V4.072H19.7314V13H16.9954V11.736C16.7287 12.152 16.3554 12.488 15.8754 12.744C15.406 13 14.8567 13.128 14.2274 13.128C13.502 13.128 12.8407 12.9413 12.2434 12.568C11.646 12.184 11.1714 11.6453 10.8194 10.952C10.478 10.248 10.3074 9.43733 10.3074 8.52ZM16.9954 8.536C16.9954 7.85333 16.8034 7.31467 16.4194 6.92C16.046 6.52533 15.5874 6.328 15.0434 6.328C14.4994 6.328 14.0354 6.52533 13.6514 6.92C13.278 7.304 13.0914 7.83733 13.0914 8.52C13.0914 9.20267 13.278 9.74667 13.6514 10.152C14.0354 10.5467 14.4994 10.744 15.0434 10.744C15.5874 10.744 16.046 10.5467 16.4194 10.152C16.8034 9.75733 16.9954 9.21867 16.9954 8.536ZM23.0868 3.144C22.6068 3.144 22.2121 3.00533 21.9028 2.728C21.6041 2.44 21.4548 2.088 21.4548 1.672C21.4548 1.24533 21.6041 0.893333 21.9028 0.615999C22.2121 0.327999 22.6068 0.183999 23.0868 0.183999C23.5561 0.183999 23.9401 0.327999 24.2388 0.615999C24.5481 0.893333 24.7028 1.24533 24.7028 1.672C24.7028 2.088 24.5481 2.44 24.2388 2.728C23.9401 3.00533 23.5561 3.144 23.0868 3.144ZM24.4468 4.072V13H21.7108V4.072H24.4468ZM29.1655 5.336C29.4215 4.92 29.7895 4.584 30.2695 4.328C30.7495 4.072 31.2988 3.944 31.9175 3.944C32.6535 3.944 33.3202 4.13067 33.9175 4.504C34.5148 4.87733 34.9842 5.41067 35.3255 6.104C35.6775 6.79733 35.8535 7.60267 35.8535 8.52C35.8535 9.43733 35.6775 10.248 35.3255 10.952C34.9842 11.6453 34.5148 12.184 33.9175 12.568C33.3202 12.9413 32.6535 13.128 31.9175 13.128C31.2882 13.128 30.7388 13.0053 30.2695 12.76C29.8002 12.504 29.4322 12.168 29.1655 11.752V13H26.4295V1.16H29.1655V5.336ZM33.0695 8.52C33.0695 7.83733 32.8775 7.304 32.4935 6.92C32.1202 6.52533 31.6562 6.328 31.1015 6.328C30.5575 6.328 30.0935 6.52533 29.7095 6.92C29.3362 7.31467 29.1495 7.85333 29.1495 8.536C29.1495 9.21867 29.3362 9.75733 29.7095 10.152C30.0935 10.5467 30.5575 10.744 31.1015 10.744C31.6455 10.744 32.1095 10.5467 32.4935 10.152C32.8775 9.74667 33.0695 9.20267 33.0695 8.52ZM36.7449 8.52C36.7449 7.60267 36.9155 6.79733 37.2569 6.104C37.6089 5.41067 38.0835 4.87733 38.6809 4.504C39.2782 4.13067 39.9449 3.944 40.6809 3.944C41.3102 3.944 41.8595 4.072 42.3289 4.328C42.8089 4.584 43.1769 4.92 43.4329 5.336V4.072H46.1689V13H43.4329V11.736C43.1662 12.152 42.7929 12.488 42.3129 12.744C41.8435 13 41.2942 13.128 40.6649 13.128C39.9395 13.128 39.2782 12.9413 38.6809 12.568C38.0835 12.184 37.6089 11.6453 37.2569 10.952C36.9155 10.248 36.7449 9.43733 36.7449 8.52ZM43.4329 8.536C43.4329 7.85333 43.2409 7.31467 42.8569 6.92C42.4835 6.52533 42.0249 6.328 41.4809 6.328C40.9369 6.328 40.4729 6.52533 40.0889 6.92C39.7155 7.304 39.5289 7.83733 39.5289 8.52C39.5289 9.20267 39.7155 9.74667 40.0889 10.152C40.4729 10.5467 40.9369 10.744 41.4809 10.744C42.0249 10.744 42.4835 10.5467 42.8569 10.152C43.2409 9.75733 43.4329 9.21867 43.4329 8.536ZM62.9309 3.976C64.0402 3.976 64.9202 4.312 65.5709 4.984C66.2322 5.656 66.5629 6.58933 66.5629 7.784V13H63.8429V8.152C63.8429 7.576 63.6882 7.13333 63.3789 6.824C63.0802 6.504 62.6642 6.344 62.1309 6.344C61.5975 6.344 61.1762 6.504 60.8669 6.824C60.5682 7.13333 60.4189 7.576 60.4189 8.152V13H57.6989V8.152C57.6989 7.576 57.5442 7.13333 57.2349 6.824C56.9362 6.504 56.5202 6.344 55.9869 6.344C55.4535 6.344 55.0322 6.504 54.7229 6.824C54.4242 7.13333 54.2749 7.576 54.2749 8.152V13H51.5389V4.072H54.2749V5.192C54.5522 4.81867 54.9149 4.52533 55.3629 4.312C55.8109 4.088 56.3175 3.976 56.8829 3.976C57.5549 3.976 58.1522 4.12 58.6749 4.408C59.2082 4.696 59.6242 5.10667 59.9229 5.64C60.2322 5.14933 60.6535 4.74933 61.1869 4.44C61.7202 4.13067 62.3015 3.976 62.9309 3.976ZM67.9324 8.52C67.9324 7.60267 68.103 6.79733 68.4444 6.104C68.7964 5.41067 69.271 4.87733 69.8684 4.504C70.4657 4.13067 71.1324 3.944 71.8684 3.944C72.4977 3.944 73.047 4.072 73.5164 4.328C73.9964 4.584 74.3644 4.92 74.6204 5.336V4.072H77.3564V13H74.6204V11.736C74.3537 12.152 73.9804 12.488 73.5004 12.744C73.031 13 72.4817 13.128 71.8524 13.128C71.127 13.128 70.4657 12.9413 69.8684 12.568C69.271 12.184 68.7964 11.6453 68.4444 10.952C68.103 10.248 67.9324 9.43733 67.9324 8.52ZM74.6204 8.536C74.6204 7.85333 74.4284 7.31467 74.0444 6.92C73.671 6.52533 73.2124 6.328 72.6684 6.328C72.1244 6.328 71.6604 6.52533 71.2764 6.92C70.903 7.304 70.7164 7.83733 70.7164 8.52C70.7164 9.20267 70.903 9.74667 71.2764 10.152C71.6604 10.5467 72.1244 10.744 72.6684 10.744C73.2124 10.744 73.671 10.5467 74.0444 10.152C74.4284 9.75733 74.6204 9.21867 74.6204 8.536ZM80.7118 3.144C80.2318 3.144 79.8371 3.00533 79.5278 2.728C79.2291 2.44 79.0798 2.088 79.0798 1.672C79.0798 1.24533 79.2291 0.893333 79.5278 0.615999C79.8371 0.327999 80.2318 0.183999 80.7118 0.183999C81.1811 0.183999 81.5651 0.327999 81.8638 0.615999C82.1731 0.893333 82.3278 1.24533 82.3278 1.672C82.3278 2.088 82.1731 2.44 81.8638 2.728C81.5651 3.00533 81.1811 3.144 80.7118 3.144ZM82.0718 4.072V13H79.3358V4.072H82.0718ZM87.6865 13.128C86.9078 13.128 86.2145 12.9947 85.6065 12.728C84.9985 12.4613 84.5185 12.0987 84.1665 11.64C83.8145 11.1707 83.6172 10.648 83.5745 10.072H86.2785C86.3105 10.3813 86.4545 10.632 86.7105 10.824C86.9665 11.016 87.2812 11.112 87.6545 11.112C87.9958 11.112 88.2572 11.048 88.4385 10.92C88.6305 10.7813 88.7265 10.6053 88.7265 10.392C88.7265 10.136 88.5932 9.94933 88.3265 9.832C88.0598 9.704 87.6278 9.56533 87.0305 9.416C86.3905 9.26667 85.8572 9.112 85.4305 8.952C85.0038 8.78133 84.6358 8.52 84.3265 8.168C84.0172 7.80533 83.8625 7.32 83.8625 6.712C83.8625 6.2 84.0012 5.736 84.2785 5.32C84.5665 4.89333 84.9825 4.55733 85.5265 4.312C86.0812 4.06667 86.7372 3.944 87.4945 3.944C88.6145 3.944 89.4945 4.22133 90.1345 4.776C90.7852 5.33067 91.1585 6.06667 91.2545 6.984H88.7265C88.6838 6.67467 88.5452 6.42933 88.3105 6.248C88.0865 6.06667 87.7878 5.976 87.4145 5.976C87.0945 5.976 86.8492 6.04 86.6785 6.168C86.5078 6.28533 86.4225 6.45067 86.4225 6.664C86.4225 6.92 86.5558 7.112 86.8225 7.24C87.0998 7.368 87.5265 7.496 88.1025 7.624C88.7638 7.79467 89.3025 7.96533 89.7185 8.136C90.1345 8.296 90.4972 8.56267 90.8065 8.936C91.1265 9.29867 91.2918 9.78933 91.3025 10.408C91.3025 10.9307 91.1532 11.4 90.8545 11.816C90.5665 12.2213 90.1452 12.5413 89.5905 12.776C89.0465 13.0107 88.4118 13.128 87.6865 13.128Z" fill="white"/>
</svg>
