<svg width="48" height="48" viewBox="0 0 48 48" fill="none" xmlns="http://www.w3.org/2000/svg">
<g clip-path="url(#clip0_504_3908)">
<path d="M31.9997 16H29.333C29.333 13.0533 26.9463 10.6666 23.9997 10.6666C21.053 10.6666 18.6663 13.0533 18.6663 16H15.9997C14.533 16 13.333 17.2 13.333 18.6666V34.6666C13.333 36.1333 14.533 37.3333 15.9997 37.3333H31.9997C33.4663 37.3333 34.6663 36.1333 34.6663 34.6666V18.6666C34.6663 17.2 33.4663 16 31.9997 16ZM23.9997 13.3333C25.4663 13.3333 26.6663 14.5333 26.6663 16H21.333C21.333 14.5333 22.533 13.3333 23.9997 13.3333ZM31.9997 34.6666H15.9997V18.6666H18.6663V21.3333C18.6663 22.0666 19.2663 22.6666 19.9997 22.6666C20.733 22.6666 21.333 22.0666 21.333 21.3333V18.6666H26.6663V21.3333C26.6663 22.0666 27.2663 22.6666 27.9997 22.6666C28.733 22.6666 29.333 22.0666 29.333 21.3333V18.6666H31.9997V34.6666Z" fill="#002F52"/>
</g>
<defs>
<clipPath id="clip0_504_3908">
<rect width="32" height="32" fill="white" transform="translate(8 8)"/>
</clipPath>
</defs>
</svg>
